<?xml version="1.0" encoding="UTF-8"?>
<svg width="1024" height="1024" viewBox="0 0 1024 1024" xmlns="http://www.w3.org/2000/svg">
  <defs>
    <radialGradient id="splashGrad" cx="50%" cy="50%">
      <stop offset="0%" style="stop-color:#BFFF00;stop-opacity:1" />
      <stop offset="100%" style="stop-color:#8FE700;stop-opacity:1" />
    </radialGradient>
  </defs>
  
  <!-- Black background -->
  <rect width="1024" height="1024" fill="#000000"/>
  
  <!-- Lime green splash shape -->
  <g transform="translate(512, 512)">
    <path d="
      M 0,-240
      C -40,-260 -30,-290 20,-280
      C 60,-270 80,-250 120,-260
      C 160,-270 180,-240 200,-200
      C 220,-160 240,-120 220,-80
      C 200,-40 220,0 240,40
      C 260,80 240,120 200,140
      C 160,160 120,180 80,160
      C 40,140 0,160 -40,140
      C -80,120 -120,100 -140,120
      C -160,140 -180,120 -200,80
      C -220,40 -240,0 -220,-40
      C -200,-80 -220,-120 -200,-160
      C -180,-200 -160,-240 -120,-260
      C -80,-280 -40,-260 0,-240 Z
    " fill="url(#splashGrad)" />
    
    <!-- Small splash drops -->
    <circle cx="240" cy="-180" r="20" fill="#8FE700" />
    <circle cx="-260" cy="100" r="16" fill="#BFFF00" />
    <circle cx="200" cy="240" r="14" fill="#8FE700" />
    <circle cx="-240" cy="-160" r="12" fill="#BFFF00" />
    <circle cx="280" cy="60" r="18" fill="#8FE700" />
    <circle cx="-200" cy="260" r="15" fill="#BFFF00" />
    <circle cx="140" cy="-260" r="13" fill="#8FE700" />
    <circle cx="-140" cy="-240" r="11" fill="#BFFF00" />
  </g>
  
  <!-- Text: SweekAI -->
  <text x="512" y="540" 
        font-family="Arial Black, Helvetica, sans-serif" 
        font-size="160" 
        font-weight="900" 
        text-anchor="middle" 
        fill="white"
        letter-spacing="-2">
    SweekAI
  </text>
</svg>